<svg xmlns="http://www.w3.org/2000/svg" viewBox="0 0 32 32" fill="none"><rect x="12" y="3" width="14" height="4" rx="1" fill="#82947c"/><rect x="15" y="7" width="8" height="3" rx="0" fill="#ece4d3"/><rect x="10" y="10" width="18" height="19" rx="4" fill="#82947c"/><rect x="13" y="16" width="12" height="9" rx="2" fill="#ece4d3"/><path d="M16 19h6m-6 3h4" fill="none" stroke="#344956" stroke-width="2" stroke-linecap="round" stroke-linejoin="round"/><path d="M3 20 11 12q4-4 7 0 2 3-1 6l-8 10q-4 4-7 0-2-3 1-8Z" fill="#ece4d3"/><path d="m7 16 4-4q4-4 7 0 2 3-1 6l-3 4Z" fill="#83b8d5"/></svg>
